<svg id="_0526_email_campaign" xmlns="http://www.w3.org/2000/svg" viewBox="0 0 500 500" data-imageid="email-campaign-73" imageName="Email Campaign" class="illustrations_image" style="width: 166px;"><defs><style>.cls-1_email-campaign-73{fill:#fff;}.cls-2_email-campaign-73{fill:#f4a28c;}.cls-3_email-campaign-73{opacity:.46;}.cls-3_email-campaign-73,.cls-4_email-campaign-73,.cls-5_email-campaign-73,.cls-6_email-campaign-73,.cls-7_email-campaign-73,.cls-8_email-campaign-73,.cls-9_email-campaign-73,.cls-10_email-campaign-73,.cls-11_email-campaign-73{fill:none;}.cls-12_email-campaign-73{fill:#a5a5a5;}.cls-4_email-campaign-73{opacity:.58;}.cls-5_email-campaign-73{opacity:.56;}.cls-13_email-campaign-73{fill:#ce8172;}.cls-6_email-campaign-73{opacity:.44;}.cls-14_email-campaign-73{fill:#e6e6e6;}.cls-7_email-campaign-73{opacity:.03;}.cls-8_email-campaign-73{opacity:.09;}.cls-9_email-campaign-73{opacity:.73;}.cls-10_email-campaign-73{opacity:.12;}.cls-11_email-campaign-73{opacity:.31;}.cls-15_email-campaign-73{fill:#24285b;}.cls-16_email-campaign-73{fill:#ffd200;}.cls-17_email-campaign-73{fill:#68e1fd;}</style></defs><g id="sd_email-campaign-73" class="cls-7_email-campaign-73"><ellipse cx="254.88" cy="449.92" rx="224.3" ry="35.14"/></g><g id="phone_email-campaign-73"><rect class="cls-14_email-campaign-73" x="338.13" y="53.36" width="46.83" height="7.41"/><rect class="cls-12_email-campaign-73" x="349.53" y="45.92" width="35.42" height="7.41"/><rect class="cls-12_email-campaign-73" x="214.01" y="60.81" width="214.13" height="384.04"/><rect class="cls-1_email-campaign-73" x="231.73" y="104.58" width="177.24" height="270.27"/><g class="cls-5_email-campaign-73"><circle class="cls-1_email-campaign-73" cx="321.72" cy="409.47" r="20.95"/></g><g class="cls-10_email-campaign-73"><rect x="302.96" y="75.82" width="60.04" height="8.76"/></g><circle class="cls-1_email-campaign-73" cx="281.22" cy="81.15" r="9.78"/><g class="cls-4_email-campaign-73"><path class="cls-17_email-campaign-73 targetColor" d="m380.99,44.21s-13.09-3.58-15.94-15.76c0,0,20.28-4.1,20.86,16.84l-4.92-1.08Z" style="fill: rgb(68, 169, 65);"/></g><g class="cls-9_email-campaign-73"><path class="cls-17_email-campaign-73 targetColor" d="m382.6,42.91s-9.15-14.46-1.1-27.98c0,0,15.42,9.79,8.57,28.01l-7.47-.03Z" style="fill: rgb(68, 169, 65);"/></g><path class="cls-17_email-campaign-73 targetColor" d="m384.95,42.92s4.83-15.27,19.44-18.16c0,0,2.74,9.92-9.46,18.2l-9.98-.04Z" style="fill: rgb(68, 169, 65);"/><polygon class="cls-15_email-campaign-73" points="375.46 42.58 378.11 60.74 394.83 60.81 397.29 42.67 375.46 42.58"/><polygon class="cls-15_email-campaign-73" points="391.82 169.88 391.57 169.73 391.57 169.46 391.11 169.46 325.25 130.61 318.19 130.61 252.34 169.46 251.88 169.46 251.88 169.73 251.62 169.88 251.88 169.88 251.88 248.12 391.57 248.12 391.57 169.88 391.82 169.88"/><rect class="cls-16_email-campaign-73" x="268.4" y="139.21" width="106.64" height="99.18"/><polygon class="cls-17_email-campaign-73 targetColor" points="391.82 169.46 391.82 248 251.62 248 251.62 169.46 251.81 169.46 318.19 208.62 325.25 208.62 391.63 169.46 391.82 169.46" style="fill: rgb(68, 169, 65);"/><g class="cls-3_email-campaign-73"><polygon class="cls-1_email-campaign-73" points="318.19 208.73 325.25 208.73 391.82 248 251.62 248 318.19 208.73"/></g><rect class="cls-14_email-campaign-73" x="251.62" y="267.02" width="100.78" height="16.95"/><rect class="cls-14_email-campaign-73" x="368.39" y="267.02" width="21.92" height="16.95"/><rect class="cls-14_email-campaign-73" x="251.62" y="300.19" width="59.67" height="16.95"/><rect class="cls-14_email-campaign-73" x="328.65" y="300.19" width="61.66" height="16.95"/><rect class="cls-14_email-campaign-73" x="251.62" y="333.36" width="109.91" height="16.95"/></g><g id="person_email-campaign-73"><path class="cls-2_email-campaign-73" d="m242.28,135.99c-.12-.46-2.2-8.33-4.97-9.13-2.77-.8-9.24-1.38-8.67,1.97s6.93,11.44,6.93,11.44l6.7-4.28Z"/><path class="cls-17_email-campaign-73 targetColor" d="m173.16,139.63s59.34,33.6,64.88,28.36c5.55-5.24-4.62-29.27-4.62-29.27l8.94-4.02s39.14,45.93,20.65,56.71c-18.49,10.79-84.74-8.29-84.74-8.29l-5.1-43.49Z" style="fill: rgb(68, 169, 65);"/><g class="cls-6_email-campaign-73"><path class="cls-1_email-campaign-73" d="m173.16,139.63s59.34,33.6,64.88,28.36c5.55-5.24-4.62-29.27-4.62-29.27l8.94-4.02s39.14,45.93,20.65,56.71c-18.49,10.79-84.74-8.29-84.74-8.29l-5.1-43.49Z"/></g><polygon class="cls-2_email-campaign-73" points="130.76 313.52 169.88 438.97 178.98 438.97 170.5 309.69 130.76 313.52"/><path class="cls-2_email-campaign-73" d="m99.26,298.27l7.86,51.19-33.96-26.72-6.52,7.61s33.44,54.65,60.36,48.39c26.92-6.25,10.06-89.32,10.06-89.32l-37.79,8.85Z"/><polygon class="cls-2_email-campaign-73" points="154.84 95.92 149.28 138.55 173 139.93 167.52 108.36 154.84 95.92"/><g class="cls-11_email-campaign-73"><path class="cls-13_email-campaign-73" d="m169.01,115.22s-4.4-.77-7.8-4.36c0,0,.56,7.85,9.41,15.37l-1.61-11.01Z"/></g><path class="cls-2_email-campaign-73" d="m178.84,93.59s.76,13.1-1.7,21.72c-.99,3.5-4.7,5.56-8.18,4.51-4.33-1.3-9.8-4.31-11.06-11.28l-3.59-11.57s-1.99-7.33,5.55-12.43c7.55-5.1,18.9,1.03,18.96,9.04Z"/><path class="cls-2_email-campaign-73" d="m164.58,104.42s.05-5.05-3.76-4.77c-3.8.28-3.92,7.58,1.22,8.41l2.54-3.64Z"/><path class="cls-2_email-campaign-73" d="m178.89,101.87l3.51,5.16c.87,1.27.11,3.02-1.41,3.26l-5.04.8,2.94-9.21Z"/><path class="cls-17_email-campaign-73 targetColor" d="m167.72,135.76s55.85,24.79,38.09,63.22c-12.87,27.84-27.55,21.75-32.62,44.22l-5.25,22.11-57.1-20.66s8.7-32.31,6.16-54.22c-2.54-21.91-10.92-76.57,50.73-54.68Z" style="fill: rgb(68, 169, 65);"/><g class="cls-8_email-campaign-73"><path d="m151.72,147.49s20.37,32.34-.98,62.93c-3.62,5.19-6.85,10.64-10,16.13l-13.74,23.96-16.17-5.85,3.06-13.6,37.83-83.57Z"/></g><path class="cls-16_email-campaign-73" d="m160.82,99.64s13.7,39.48.69,46.16c-13.01,6.69-35.41,3.94-37.5-12.69-2.09-16.64,14.27-19.88,15.63-42.94,1.36-23.06,45.56-19.07,45.32-5.79-.24,13.28-24.14,15.25-24.14,15.25Z"/><path class="cls-17_email-campaign-73 targetColor" d="m142.68,132c-7.21-5.49-17.25-5.09-23.46,1.5-4.47,4.74-8.25,12.95-7.09,27.1,2.54,31.17-7.25,68.19-36.25,48.59-29-19.59-30.45-26.12-30.45-26.12l-10.15,11.35s27.91,50.28,63.8,43.75c32.4-5.89,72.18-84.4,43.61-106.17Z" style="fill: rgb(68, 169, 65);"/><g class="cls-6_email-campaign-73"><path class="cls-1_email-campaign-73" d="m142.68,132c-7.21-5.49-17.25-5.09-23.46,1.5-4.47,4.74-8.25,12.95-7.09,27.1,2.54,31.17-7.25,68.19-36.25,48.59-29-19.59-30.45-26.12-30.45-26.12l-10.15,11.35s27.91,50.28,63.8,43.75c32.4-5.89,72.18-84.4,43.61-106.17Z"/></g><path class="cls-15_email-campaign-73" d="m110.83,244.65l57.1,20.66,6.93,68.87-77.8-5.44s-17.04-52.38,13.77-84.1Z"/><path class="cls-2_email-campaign-73" d="m42.55,186.29s-4.51-8.12-14.29-5.94c-9.79,2.17-12.2,15.3,7.02,14.07l7.28-8.13Z"/><path class="cls-17_email-campaign-73 targetColor" d="m178.32,438.97s5.03,6.37,11.46,6.06c6.43-.31,7.37,8.77-2.97,7.83-3.95-.36-7.12-.99-9.53-1.64-2.87-.77-5.84-.46-8.72.31-.9.24-1.92.03-2.95-1.18-2.93-3.45,4.27-11.39,4.27-11.39h8.44Z" style="fill: rgb(68, 169, 65);"/><path class="cls-17_email-campaign-73 targetColor" d="m67.45,330.57s-8.11-.19-11.97,4.97c-3.86,5.15-11.46.09-4.14-7.28,2.79-2.81,5.3-4.85,7.33-6.3,2.42-1.72,4.08-4.21,5.32-6.91.39-.84,1.2-1.5,2.78-1.52,4.53-.06,6.38,9.22,6.38,9.22l-5.71,7.83Z" style="fill: rgb(68, 169, 65);"/><polygon class="cls-15_email-campaign-73" points="284.34 116.12 204.47 119.32 200.23 104.5 269.71 64.98 284.34 116.12"/><rect class="cls-15_email-campaign-73" x="225.22" y="112.17" width="8.01" height="29.36" transform="translate(-32.76 126.19) rotate(-28.81)"/><path class="cls-2_email-campaign-73" d="m228.91,128.4c-.38,1.47-.12,3.1.7,4.39s2.19,2.2,3.69,2.47c.88.16,1.79.1,2.65-.1.9-.21,1.8-.61,2.39-1.33,1.74-2.08.16-4.73-1.32-6.42-1.28-1.46-2.76-1.68-4.63-1.44-1.63.21-3.04.68-3.49,2.42Z"/></g></svg>