<svg id="_0429_eating_salad" xmlns="http://www.w3.org/2000/svg" xmlns:xlink="http://www.w3.org/1999/xlink" viewBox="0 0 500 500" data-imageid="eating-salad-40" imageName="Eating Salad" class="illustrations_image" style="width: 166px;"><defs><style>.cls-1_eating-salad-40{fill:url(#linear-gradient);}.cls-1_eating-salad-40,.cls-2_eating-salad-40,.cls-3_eating-salad-40,.cls-4_eating-salad-40,.cls-5_eating-salad-40,.cls-6_eating-salad-40,.cls-7_eating-salad-40,.cls-8_eating-salad-40,.cls-9_eating-salad-40,.cls-10_eating-salad-40,.cls-11_eating-salad-40,.cls-12_eating-salad-40,.cls-13_eating-salad-40,.cls-14_eating-salad-40,.cls-15_eating-salad-40,.cls-16_eating-salad-40,.cls-17_eating-salad-40,.cls-18_eating-salad-40{stroke-width:0px;}.cls-2_eating-salad-40{isolation:isolate;opacity:.18;}.cls-2_eating-salad-40,.cls-18_eating-salad-40{fill:#68e1fd;}.cls-3_eating-salad-40{fill:url(#linear-gradient-11-eating-salad-40);}.cls-4_eating-salad-40{fill:url(#linear-gradient-12-eating-salad-40);}.cls-5_eating-salad-40{fill:url(#linear-gradient-10-eating-salad-40);}.cls-6_eating-salad-40{fill:url(#linear-gradient-4-eating-salad-40);}.cls-7_eating-salad-40{fill:url(#linear-gradient-2-eating-salad-40);}.cls-8_eating-salad-40{fill:url(#linear-gradient-3-eating-salad-40);}.cls-9_eating-salad-40{fill:url(#linear-gradient-8-eating-salad-40);}.cls-10_eating-salad-40{fill:url(#linear-gradient-9-eating-salad-40);}.cls-11_eating-salad-40{fill:url(#linear-gradient-7-eating-salad-40);}.cls-12_eating-salad-40{fill:url(#linear-gradient-5-eating-salad-40);}.cls-13_eating-salad-40{fill:url(#linear-gradient-6-eating-salad-40);}.cls-14_eating-salad-40{fill:#3e3e52;}.cls-15_eating-salad-40{fill:#734a39;}.cls-16_eating-salad-40{fill:#fff;}.cls-17_eating-salad-40{fill:#ffb4a3;}</style><linearGradient id="linear-gradient-eating-salad-40" x1="801.89" y1="2043.2" x2="814.13" y2="2043.2" gradientTransform="translate(-507.26 2289.84) scale(1 -1)" gradientUnits="userSpaceOnUse"><stop offset="0" stop-color="#231f20"/><stop offset=".13" stop-color="#231f20" stop-opacity=".69"/><stop offset="1" stop-color="#231f20" stop-opacity="0"/></linearGradient><linearGradient id="linear-gradient-2-eating-salad-40" x1="797.36" y1="2036.63" x2="796.9" y2="2047.25" xlink:href="#linear-gradient-eating-salad-40"/><linearGradient id="linear-gradient-3-eating-salad-40" x1="813.24" y1="2042.41" x2="827.63" y2="2042.41" xlink:href="#linear-gradient-eating-salad-40"/><linearGradient id="linear-gradient-4-eating-salad-40" x1="830.84" y1="2038.08" x2="830.13" y2="2048.86" xlink:href="#linear-gradient-eating-salad-40"/><linearGradient id="linear-gradient-5-eating-salad-40" x1="728.24" y1="2089.35" x2="754.59" y2="2171.6" xlink:href="#linear-gradient-eating-salad-40"/><linearGradient id="linear-gradient-6-eating-salad-40" x1="607.36" y1="2048.71" x2="744.97" y2="2015.92" xlink:href="#linear-gradient-eating-salad-40"/><linearGradient id="linear-gradient-7-eating-salad-40" x1="728.95" y1="1907.41" x2="728.95" y2="1846.74" xlink:href="#linear-gradient-eating-salad-40"/><linearGradient id="linear-gradient-8-eating-salad-40" x1="741.05" y1="1988.79" x2="699.65" y2="1908.68" xlink:href="#linear-gradient-eating-salad-40"/><linearGradient id="linear-gradient-9-eating-salad-40" x1="723.53" y1="1962.03" x2="696.29" y2="1909.31" xlink:href="#linear-gradient-eating-salad-40"/><linearGradient id="linear-gradient-10-eating-salad-40" x1="787.3" y1="2073.92" x2="797.39" y2="2073.92" xlink:href="#linear-gradient-eating-salad-40"/><linearGradient id="linear-gradient-11-eating-salad-40" x1="794.37" y1="2075.06" x2="806.07" y2="2075.06" xlink:href="#linear-gradient-eating-salad-40"/><linearGradient id="linear-gradient-12-eating-salad-40" x1="770.49" y1="1995.17" x2="823.21" y2="2033.92" xlink:href="#linear-gradient-eating-salad-40"/></defs><g id="background_eating-salad-40"><path class="cls-2_eating-salad-40 targetColor" d="M490.08,288.95c-9.06,54.34-40.48,99.5-78.32,125.32-37.84,25.82-81.5,34.07-124.22,33.45-24.34-.34-49.23-3.65-71.28-17.08-1.11-.67-2.2-1.43-3.29-2.09-3.27-2.16-6.48-4.51-9.66-6.93-11.42-8.71-22.48-18.39-34.95-24-18.77-8.42-39.3-6.96-58.69-12.79-48.22-14.55-83.63-76.88-85.83-141.32s25.49-127.35,66.13-164.27c38.25-34.77,88.3-49.67,134.49-42.96,22.37,3.26,39.62-8.06,61.36-14.45,25.17-7.37,51.3-9.84,76.9-4.95,43,8.22,84.58,39.05,106.32,88.03,13.34,30.07,18.67,65.1,21.86,99.66,2.59,28.07,3.79,56.75-.81,84.37Z" style="fill: rgb(68, 169, 65);"/><path class="cls-2_eating-salad-40 targetColor" d="M267.24,398.39c5.87-3.89,13.9-2.19,20.42-4.9,3.91,9.82,6.91,19.97,8.96,30.34,6.06-6.98,14.08-11.97,23.03-14.32,3.67,12.32,8.16,24.38,13.43,36.1,16.44-6.01,33.49-10.17,50.85-12.41,2.21-.13,4.38-.7,6.37-1.66,2.4-1.6,4.19-3.95,5.11-6.69,7.16-17.73-2.96-37.33-12.82-53.73l-31.87-53.05c-5-8.31-10.17-18.14-6.76-27.21,1.53-4.1,4.67-7.4,6.56-11.36,5.28-11-.26-24.57-9.08-33.02-2.28-2.18-4.85-4.3-6-7.16-.66-2.07-.95-4.23-.84-6.4l-.67-72.51c-.11-12.89-1.2-27.78-11.64-35.34-7.54-5.13-17.42-5.23-25.06-.26-7.48,5.16-11.73,13.84-11.21,22.91.29,5.36,1.98,11.36-1.22,15.75-1.82,2.48-4.84,3.72-7.72,4.83-13.4,5.13-28.64,11.37-33.23,24.99-2.72,8.16-.79,17.04.14,25.6,1.92,18.18-.93,36.55-8.28,53.3-5.58,12.69-13.86,24.94-13.93,38.81,0,9.92,4.17,19.29,6.73,28.87s3.18,20.78-3.05,28.5c-2,2.48-4.65,4.5-6.09,7.36-2.16,4.3-1.05,9.51.17,14.19,3.04,11.68,6.41,23.27,10.14,34.77.69,2.7,1.92,5.23,3.61,7.45,7.16,8.18,23.76,12.27,27.39-.46,3.06-10.97-5.28-25.49,6.56-33.28Z" style="fill: rgb(68, 169, 65);"/></g><g id="character_eating-salad-40"><path class="cls-18_eating-salad-40 targetColor" d="M300.56,244.36c.58-.36,1.21-.64,1.88-.82.67-.19,1.39-.06,1.96.34.89.72.87,2.06,1.43,3.08.27.56.73,1.03.99,1.6.09.18.09.39,0,.57-.11.21-.42.26-.66.29-1.76.11-3.54.19-5.3.2-1.43,0-4.22.52-5.5-.13-3.01-1.46,4.15-4.55,5.2-5.14Z" style="fill: rgb(68, 169, 65);"/><path class="cls-1_eating-salad-40" d="M300.56,244.36c.58-.36,1.21-.64,1.88-.82.67-.19,1.39-.06,1.96.34.89.72.87,2.06,1.43,3.08.27.56.73,1.03.99,1.6.09.18.09.39,0,.57-.11.21-.42.26-.66.29-1.76.11-3.54.19-5.3.2-1.43,0-4.22.52-5.5-.13-3.01-1.46,4.15-4.55,5.2-5.14Z"/><path class="cls-18_eating-salad-40 targetColor" d="M284.85,245.06c.16-.31.38-.59.63-.83.32-.25.69-.44,1.09-.54l2.71-.93c.22-.1.47-.15.72-.14.32.09.61.26.83.5,1.85,1.71,3.6,3.52,5.27,5.41-3.04.26-6.09.33-9.14.2-3.82-.17-4-.4-2.1-3.67Z" style="fill: rgb(68, 169, 65);"/><path class="cls-7_eating-salad-40" d="M284.85,245.06c.16-.31.38-.59.63-.83.32-.25.69-.44,1.09-.54l2.71-.93c.22-.1.47-.15.72-.14.32.09.61.26.83.5,1.85,1.71,3.6,3.52,5.27,5.41-3.04.26-6.09.33-9.14.2-3.82-.17-4-.4-2.1-3.67Z"/><path class="cls-18_eating-salad-40 targetColor" d="M313.26,245.85c.22-.09.45-.14.69-.14.27.02.54.1.79.21l5.2,2.28c.23.1.52.3.42.53s-.32.2-.5.2h-7.26c-1.88,0-4.9.57-6.6-.16.7-1.66,5.63-2.39,7.27-2.92Z" style="fill: rgb(68, 169, 65);"/><path class="cls-8_eating-salad-40" d="M313.26,245.85c.22-.09.45-.14.69-.14.27.02.54.1.79.21l5.2,2.28c.23.1.52.3.42.53s-.32.2-.5.2h-7.26c-1.88,0-4.9.57-6.6-.16.7-1.66,5.63-2.39,7.27-2.92Z"/><path class="cls-18_eating-salad-40 targetColor" d="M322.61,244.78c.05-.12.14-.23.26-.3.09-.02.18-.02.27,0,.63.01,1.22.33,1.58.86.35.52.61,1.09.79,1.69l.92,2.76c-1,0-5.24.42-5.87-.33-.63-.74,1.58-3.95,2.06-4.68Z" style="fill: rgb(68, 169, 65);"/><path class="cls-6_eating-salad-40" d="M322.61,244.78c.05-.12.14-.23.26-.3.09-.02.18-.02.27,0,.63.01,1.22.33,1.58.86.35.52.61,1.09.79,1.69l.92,2.76c-1,0-5.24.42-5.87-.33-.63-.74,1.58-3.95,2.06-4.68Z"/><path class="cls-16_eating-salad-40" d="M298.57,217.14c.19-.06.39-.06.57,0,.33.13.44.53.5.87.34,1.26.34,2.59,0,3.85-.54,1.35-1.65,2.4-3.04,2.86-1.36.44-2.78.67-4.21.69-1.68.31-3.41-.07-4.8-1.06-2.36-2.26-3.44-.42-6.04-1.25-2.36-.74-1.75-2.15,0-2.73,5.26-1.89,11.58-2,17.01-3.24Z"/><path class="cls-17_eating-salad-40" d="M376.55,400.43c4.08,8.51,8.66,17.56,16.97,22.05,2.51,1.35,5.73,3.08,5.36,5.9s-4.11,3.52-6.94,3.41c-9.84-.43-19.5-2.82-28.41-7.02-1.18-.44-2.22-1.19-3.01-2.18-.59-1.04-.93-2.2-1-3.39-2.02-13.55-9.32-25.69-13.25-38.81-.45-1.07-.49-2.28-.11-3.38.39-.67.95-1.21,1.62-1.59,5.15-3.47,13.03-6.87,16.65-.24,4.44,8.16,8.1,16.87,12.13,25.24Z"/><path class="cls-17_eating-salad-40" d="M288.14,443.07c-.22,1.18.08,2.41.83,3.35.88.64,1.98.92,3.06.79h13.39c1.43-16.85,9.58-32.73,9.94-49.64.04-.37-.02-.74-.19-1.07-.4-.46-.99-.71-1.6-.67-4.68-.47-9.85-.9-14.32,1.09-4.67,2.1-3.61,8.66-4.52,13.23-2.19,10.97-5.97,21.68-6.59,32.93Z"/><path class="cls-15_eating-salad-40" d="M269.87,135.81c-.23.67-.23,1.4,0,2.08.3.52.73.95,1.25,1.26,3.14,2.69,4.72,6.78,4.2,10.88-.57,4.04-2.19,7.86-4.68,11.08-.39.45-.65,1-.76,1.59,0,.95.67,1.72,1.25,2.48,2.59,3.81,1.6,9.01-2.22,11.6-.25.17-.52.33-.79.48-1.02.47-2.22.79-2.79,1.75-.41.9-.5,1.91-.26,2.86.53,4.15.66,8.59-1.02,12.37-1.16,2.63-5.26,7.52-8.75,6.57-1.56-.42-1.78-1.43-3.57-1.88-2.12-.53-3.79.17-5.96-1.16s-3.88-3.14-6.11-4.22c-5.61-2.73-12.19-.1-18.27,1.32-11.53,2.68-24.8.14-32.73-8.59-1.57-1.53-2.58-3.55-2.86-5.73-.01-1.47.26-2.93.8-4.3,1.8-5.9,4.5-11.49,8-16.57,3.52-5.1,8.52-9,14.32-11.17,9.79-3.34,20.93-.14,30.69-3.62,7.16-2.53,12.14-8.12,16.95-13.65,3.19-3.65,5.73-11.31,11.93-10.15,4.42.95,2.05,11.86,1.39,14.72Z"/><path class="cls-12_eating-salad-40" d="M269.87,135.81c-.23.67-.23,1.4,0,2.08.3.52.73.95,1.25,1.26,3.14,2.69,4.72,6.78,4.2,10.88-.57,4.04-2.19,7.86-4.68,11.08-.39.45-.65,1-.76,1.59,0,.95.67,1.72,1.25,2.48,2.59,3.81,1.6,9.01-2.22,11.6-.25.17-.52.33-.79.48-1.02.47-2.22.79-2.79,1.75-.41.9-.5,1.91-.26,2.86.53,4.15.66,8.59-1.02,12.37-1.16,2.63-5.26,7.52-8.75,6.57-1.56-.42-1.78-1.43-3.57-1.88-2.12-.53-3.79.17-5.96-1.16s-3.88-3.14-6.11-4.22c-5.61-2.73-12.19-.1-18.27,1.32-11.53,2.68-24.8.14-32.73-8.59-1.57-1.53-2.58-3.55-2.86-5.73-.01-1.47.26-2.93.8-4.3,1.8-5.9,4.5-11.49,8-16.57,3.52-5.1,8.52-9,14.32-11.17,9.79-3.34,20.93-.14,30.69-3.62,7.16-2.53,12.14-8.12,16.95-13.65,3.19-3.65,5.73-11.31,11.93-10.15,4.42.95,2.05,11.86,1.39,14.72Z"/><path class="cls-17_eating-salad-40" d="M220.11,188.36c1.77,1.7,3.11,3.8,3.89,6.13,1.43,4.07,1.35,8.46,1.29,12.76l-.26,20.59-.13,9.94c0,1.86-1.06,7.78.16,9.14,1.6,1.8,9.08,2.33,11.33,2.86l17.8,4.45,24.03,6.06c6.12-.06,12.14-1.49,17.63-4.2,1.59,1.65,1.68,4.23.2,5.99l12.57.93c3.59.1,7.15.71,10.57,1.8,3.45,1.12,6.26,3.67,7.72,6.99.2.45.28.94.23,1.43-.29,1.43-2.08,1.76-3.49,1.85l-44.2,2.29c-1.91.17-3.82.17-5.73,0-1.53-.21-3.02-.63-4.54-.92-2.18-.37-4.39-.61-6.6-.72-16.13-1.05-32.25-2.38-48.36-3.98-3.92-.3-7.8-.9-11.63-1.8-1.59-.32-3.06-1.04-4.3-2.09-.95-1.06-1.64-2.32-2.02-3.69-1-3.48-1.58-7.07-1.72-10.7-.91-13.68-.13-27.41,2.33-40.9,1.15-6.26,1.7-13,4.65-18.73,2.63-5.13,8.22-9.34,13.85-8.12,1.78.45,3.41,1.36,4.73,2.63Z"/><path class="cls-18_eating-salad-40 targetColor" d="M260.01,252.7c.19,17.18,3.62,34.15,5.38,51.23.4,2.52.33,5.08-.2,7.57-1.1,4.07-4.54,7.16-8.38,9.18-5.84,2.96-12.63,3.58-19.23,3.85-12.33.53-24.68.09-36.94-1.3-2.75-.1-5.43-.9-7.79-2.32-3.44-2.52-4.3-7.16-4.51-11.3-.69-10.57.33-21.16,1.35-31.69l4.54-47.07,2.28-23.56c.57-6.06.19-11.66,2.95-17.35,1.89-4.05,4.99-7.42,8.88-9.64,4.3-2.35,9.34-2.99,14.23-3.24,2.6-.2,5.21-.1,7.79.32,2.6.56,5.12,1.44,7.5,2.62,5.55,2.42,10.64,5.78,15.05,9.94,4.45,4.17,7.46,9.65,8.59,15.65.34,2.5.45,5.02.34,7.53-.32,13.23-1.96,26.32-1.83,39.56Z" style="fill: rgb(68, 169, 65);"/><path class="cls-13_eating-salad-40" d="M207.63,279.54c-.12-1.05.09-2.11.62-3.02.66-.74,1.52-1.27,2.48-1.53l27.78-10.31c3.9-1.21,7.56-3.06,10.84-5.5,3.12-2.61,5.38-6.62,4.81-10.64-.02-1.03-.63-1.97-1.56-2.41-.51-.14-1.04-.14-1.55,0-11.76,2.58-23.58,4.86-35.45,6.84-2.58.43-5.51.76-7.55-.87-1.35-1.29-2.23-2.99-2.51-4.84-2.45-10.65,0-21.75.3-32.69.14-1.04-.13-2.1-.76-2.94-1.03-1.03-2.78-.64-4.07,0-4.01,2.36-6.91,6.21-8.08,10.71-1.13,4.45-1.69,9.04-1.68,13.63-.91,23.14-2.62,46.22-5.13,69.25-.4,3.77-.62,8.16,2.18,10.73,1.76,1.34,3.86,2.14,6.06,2.31,2.85.43,5.71.71,8.59.84,1.68.2,3.38-.05,4.94-.72,4.74-2.49,1.13-13.37.79-17.48-.64-7.04-.99-14.16-1.06-21.36Z"/><path class="cls-17_eating-salad-40" d="M216.65,173.11c.23,5.15,1.73,10.55,5.63,13.95,3.89,3.39,10.55,3.81,13.88-.13,2.19-2.59,2.46-6.26,2.48-9.65.01-3.39-.13-6.56-.42-9.82,6.11.74,12.24-2.32,16.38-6.87s6.54-10.42,8.19-16.35c1.99-7.23,3-14.7,2.98-22.19.16-2.87-.36-5.74-1.53-8.36-1.38-2.33-3.36-4.25-5.73-5.57-5.06-3.2-11.03-4.67-17-4.2-5.99.52-11.51,3.42-15.35,8.05-4.61,5.73-5.73,13.5-6.69,20.82-1.7,13.45-3.42,26.76-2.82,40.34Z"/><path class="cls-15_eating-salad-40" d="M242.52,129.68c-5.99,1.43-13.59.32-19.57-.2,1.43,4.86-1.11,10.01-5.84,11.83-.71.13-1.35.5-1.82,1.05-.25.54-.33,1.15-.23,1.73.32,6.45-2.63,12.62-7.86,16.41-1.03.73-2.22,1.43-2.52,2.71-.11.78-.03,1.57.24,2.31,1.08,3.05,1.57,6.29,1.43,9.52-.37,3.21-2.42,6.46-5.57,7.16-.95.05-1.87.36-2.65.92-.41.52-.68,1.13-.76,1.79-.79,3.87-2.12,8.59-5.99,9.34-2,.39-4.68-.23-5.61,1.58-.64,1.27.2,2.78.19,4.21,0,5.94-6.84,2.13-9.02.44-5.4-4.15-10.97-8.59-13.95-14.66-2.98-6.07-2.46-14.53,2.99-18.61,3.87-2.86,10.12-4,10.84-8.76.1-1.79-.24-3.58-.99-5.21-1.22-3.57-2.03-7.27-2.43-11.03-.4-2.2-.17-4.47.67-6.54.84-1.47,1.95-2.78,3.28-3.84l11.91-10.84c.99-.84,1.89-1.77,2.69-2.78.57-.79,1.05-1.65,1.43-2.55,1.75-3.97,2.86-9.22,7-10.34.97-.13,1.93-.34,2.86-.63,1.09-.62,1.99-1.52,2.62-2.61,4.02-5.73,8.78-11.11,14.95-14.32,6.17-3.21,14.05-3.91,20.05-.3.9.63,1.86,1.18,2.86,1.63,1.06.34,2.17.52,3.28.52,2.35-.14,4.71.24,6.9,1.12,3.21,1.66,4.77,5.73,8.08,7.16,1.78.77,3.91.74,5.41,1.96,2.38,1.93,1.78,5.73.95,8.59,3.71,1.2,8.12,3.26,8.31,7.16-.1,2.55-1.64,4.81-3.97,5.84-2.23,1.08-4.69,1.57-7.16,1.43-.37-2.02-.64-6.96-3.25-7.6s-4.15,3.05-5.58,4.74c-3.39,4.02-8.03,8.02-13.2,9.52l-.97.17Z"/><path class="cls-17_eating-salad-40" d="M215.64,139.37c-.33.2-.62.46-.86.76-.7.72-1.26,1.55-1.68,2.46-.66,2.18-.43,4.53.64,6.54.74,2.01,2.23,3.65,4.15,4.58,1.03-1.2,1.71-2.66,1.96-4.22.69-2.32,1.02-4.74.96-7.16-.24-1.93-3.44-3.85-5.18-2.96Z"/><path class="cls-17_eating-salad-40" d="M191.85,268.66c-2.83.06-5.66-.33-8.38-1.15-4.34-1.32-7.96-4.35-10.02-8.39-5.9-11.73,0-27.08,4.94-38.07,2.96-6.53,6.31-12.87,10.02-19,1.43-2.48,3.11-4.88,4.63-7.35,1.93-3.12,2.68-6.87,5.2-9.67,1.74-2.09,4.48-3.07,7.16-2.56,1.21.4,2.32,1.06,3.25,1.93,2.42,1.87,4.1,4.54,4.74,7.53.26,3.03-.36,6.07-1.8,8.75-3.48,7.72-8.69,14.51-13.09,21.75-4.4,7.25-8.09,15.31-7.96,23.77,0,4.47,7.16,2,10.12,1.36,5.24-1.22,10.41-2.73,15.48-4.54,13.67-4.78,27-10.48,39.91-17.05,4.97-2.51,11.04-.51,13.55,4.46,2.51,4.97.51,11.04-4.46,13.55-12.41,6.29-50.75,24.67-73.29,24.67ZM191.45,250.05"/><path class="cls-17_eating-salad-40" d="M261.04,220.75c-2.87.53-5.52,1.88-7.63,3.89-3.01,3.17-3.99,7.76-2.52,11.88.67,1.63,1.54,3.17,2.58,4.6.79,1.35,1.83,2.55,3.06,3.51,1.68.9,3.54,1.39,5.44,1.43,1.23.22,2.48.22,3.71,0,.95-.31,1.86-.73,2.72-1.23,3.06-1.63,6.37-2.76,9.46-4.3,3.19-1.44,5.86-3.82,7.66-6.82.96-2.03,1.61-4.2,1.9-6.43.18-.75.23-1.53.16-2.31-.26-1.25-1-2.34-2.05-3.06-1.97-1.26-4.25-1.94-6.59-1.98-1.78-.13-3.57-.13-5.34-.11s-3.75.32-5.73.32c-2.3-.04-4.59.16-6.84.6Z"/><path class="cls-16_eating-salad-40" d="M237.84,149.37c-.15-.02-.3.02-.43.1-.08.11-.11.24-.1.37-.07,1.87.43,3.71,1.43,5.28,1,1.59,2.73,2.57,4.61,2.61,2.68,0,8.59-3.02,6.53-6.53-1.62-2.72-9.31-1.69-12.04-1.83Z"/><path class="cls-16_eating-salad-40" d="M340.44,248.34l-8.96,24.71c-1.43,2.86-2.51,7.68-10.98,8.79-.74.1-1.55.17-2.42.21-6.17.27-12.04,1.16-21.19.3-6.43-.6-11.58-.77-13.65-7.42l-5.1-20.49h0l-1.52-6.09,63.82-.03Z"/><path class="cls-14_eating-salad-40" d="M208.16,353.1c11.64,8.59,26.32,12.19,40.75,13.42,14.43,1.23,28.97.32,43.44,1,.84,0,1.92,12.73,2.02,14.02.43,5.14.5,10.3.23,15.45-.27,5.21.42,5.73,5.56,7.16,4.72,1.36,9.61,2.09,14.52,2.16.61.07,1.23-.08,1.75-.43.39-.46.61-1.04.6-1.65l4.4-37.34c1.09-7.69,1.65-15.45,1.68-23.23.07-1.08-.15-2.17-.64-3.14-.62-.83-1.44-1.48-2.38-1.92l-13.22-7.52c-4.75-2.69-9.51-5.4-14.51-7.6-4.3-1.88-8.59-3.39-12.89-5.17-5.23-2.16-10.3-4.7-15.68-6.41-15.15-4.84-29.37,2.86-44.55,3.16-7.85.14-16.9-1.5-24.34,1.56-14.76,6,6.53,31.5,13.26,36.47Z"/><path class="cls-14_eating-salad-40" d="M321.92,308.91c2.82-.17,5.65.19,8.35,1.05,2.1.91,4.01,2.22,5.61,3.85,6.63,6.3,10.71,14.81,14.16,23.28,3.98,9.77,16.01,38.48,16.01,38.48-3.16,1.96-17.18,7.06-20.83,7.72-4.02-10.8-9.48-21.01-16.24-30.34-1.08-1.66-2.45-3.11-4.04-4.3-2.33-1.32-4.93-2.08-7.6-2.22-9.13-1.11-18.33-1.51-27.52-1.22-7.68.24-16.83.99-23.54-3.49-4.87-3.26-9.72-7.72-14.48-11.46-2.99-2.31-21.55-16.7-9.75-18.69,8.09-1.36,42.66-2.76,50.85-2.75l29.03.09Z"/><path class="cls-18_eating-salad-40 targetColor" d="M226.87,396.47v32.07c-3.51-2.16-6.96-4.51-10.37-6.93v-25.14c0-2.86,2.32-5.18,5.18-5.18,1.38,0,2.69.55,3.67,1.52.98.97,1.52,2.29,1.52,3.67Z" style="fill: rgb(68, 169, 65);"/><path class="cls-11_eating-salad-40" d="M226.87,396.47v32.07c-3.51-2.16-6.96-4.51-10.37-6.93v-25.14c0-2.86,2.32-5.18,5.18-5.18,1.38,0,2.69.55,3.67,1.52.98.97,1.52,2.29,1.52,3.67Z"/><path class="cls-18_eating-salad-40 targetColor" d="M209.85,336.65c-11.91-11.83-20.62-26.91-34.11-36.9-.8-.75-1.86-1.17-2.96-1.16-1.14.32-2.1,1.11-2.65,2.16-14.32,20.82-10.57,51.06,6.01,70.09,14.73,16.88,37.65,24.96,59.65,24.26,5-.16,12.43.24,15.75-4.18,2.73-3.71,2.29-11.46,1.8-15.87-.87-7.88-4.91-12.51-11.46-16.65-11.14-7.06-22.52-12.31-32.05-21.75Z" style="fill: rgb(68, 169, 65);"/><path class="cls-9_eating-salad-40" d="M251.47,390.92c-2.42,3.29-7.16,3.91-11.46,4.08-1.43,0-2.86,0-4.21.1-22.04.7-44.96-7.37-59.65-24.26-12.28-14.34-17.31-33.51-13.66-52.04,1.34-6.46,3.93-12.59,7.63-18.06.6-1.71,2.48-2.6,4.18-2,.56.2,1.05.54,1.43,1,13.49,10.02,22.19,25.07,34.12,36.9,9.52,9.44,20.89,14.69,32.02,21.75,6.5,4.14,10.54,8.78,11.46,16.65.44,4.4.87,12.16-1.86,15.87Z"/><path class="cls-10_eating-salad-40" d="M240,395c-1.43,0-2.86,0-4.21.1-22.04.7-44.96-7.37-59.65-24.26-12.28-14.34-17.31-33.51-13.66-52.04,13.42,10.02,22.11,25,33.98,36.79,9.52,9.44,20.91,14.71,32.02,21.77,6.5,4.12,10.54,8.78,11.46,16.65,0,.31.04.64.07.99Z"/><path class="cls-16_eating-salad-40" d="M229.03,229.27c-.16.82.66,1.56,1.43,1.66.84.02,1.68-.17,2.43-.54,7.39-2.86,15.42-3.08,23.05-5.04,4.67-1.19,2.21-2.52-1.17-2.02-4.17.62-8.31,1.56-12.4,2.49-1.39.33-13.15,2.35-13.35,3.45Z"/><path class="cls-18_eating-salad-40 targetColor" d="M280.32,217.43c-.19-.4-.28-.84-.27-1.29.09-.46.3-.9.6-1.26l2.32-3.32c.1-.14.23-.3.4-.32.15,0,.3.05.42.16,1.4.9,2.72,1.94,3.92,3.09,1.21,1.16,2.05,2.66,2.42,4.3-1.67-.14-3.35.11-4.91.72-.76.29-2.48,1.43-3.32,1s-1.29-2.35-1.58-3.08Z" style="fill: rgb(68, 169, 65);"/><path class="cls-5_eating-salad-40" d="M280.32,217.43c-.19-.4-.28-.84-.27-1.29.09-.46.3-.9.6-1.26l2.32-3.32c.1-.14.23-.3.4-.32.15,0,.3.05.42.16,1.4.9,2.72,1.94,3.92,3.09,1.21,1.16,2.05,2.66,2.42,4.3-1.67-.14-3.35.11-4.91.72-.76.29-2.48,1.43-3.32,1s-1.29-2.35-1.58-3.08Z"/><path class="cls-18_eating-salad-40 targetColor" d="M291.35,211.13c.19-.18.4-.34.63-.46.3-.12.63-.18.96-.17l2.23-.1c.16-.04.33-.04.49,0,.18.11.32.28.4.47,1.1,2.05,2.02,4.19,2.75,6.4-.61.19-1.24.3-1.88.33-1.02.19-2.03.45-3.02.79-2.07.47-4.18.73-6.3.76-.1.05-.22.05-.32,0-.73-.73.84-3.54,1.19-4.21.73-1.42,1.7-2.71,2.86-3.81Z" style="fill: rgb(68, 169, 65);"/><path class="cls-3_eating-salad-40" d="M291.35,211.13c.19-.18.4-.34.63-.46.3-.12.63-.18.96-.17l2.23-.1c.16-.04.33-.04.49,0,.18.11.32.28.4.47,1.1,2.05,2.02,4.19,2.75,6.4-.61.19-1.24.3-1.88.33-1.02.19-2.03.45-3.02.79-2.07.47-4.18.73-6.3.76-.1.05-.22.05-.32,0-.73-.73.84-3.54,1.19-4.21.73-1.42,1.7-2.71,2.86-3.81Z"/><path class="cls-4_eating-salad-40" d="M324.64,254.43l-4.15,27.42c-.74.1-1.55.17-2.42.21-6.17.27-12.04,1.16-21.19.3-6.43-.6-11.58-.77-13.65-7.42l-5.1-20.49h0l46.51-.03Z"/></g></svg>